<?xml version="1.0" encoding="UTF-8"?>
<svg id="Layer_1" data-name="Layer 1" xmlns="http://www.w3.org/2000/svg" viewBox="0 0 209.63 62.67">
  <defs>
    <style>
      .cls-1 {
        fill: #f26739;
      }

      .cls-1, .cls-2, .cls-3 {
        fill-rule: evenodd;
      }

      .cls-1, .cls-2, .cls-3, .cls-4 {
        stroke-width: 0px;
      }

      .cls-2, .cls-4 {
        fill: #fff;
      }

      .cls-3 {
        fill: #1b93d2;
      }
    </style>
  </defs>
  <polygon class="cls-1" points="165.03 17.3 159.99 17.3 159.99 21.72 165.03 17.3 165.03 17.3"/>
  <path class="cls-2" d="M87.54,28.8h5.46v-3.96h-5.46v-5.58h-4.69v5.58h-2.58v3.96h2.58v10.72c0,1.13.14,2.08.43,2.83.28.76.69,1.37,1.22,1.83.53.46,1.16.79,1.88,1,.72.21,1.51.31,2.35.31s1.64-.09,2.31-.27c.67-.18,1.29-.44,1.88-.77v-3.81c-.92.46-1.88.69-2.88.69-.79,0-1.41-.2-1.85-.6-.44-.4-.65-1.05-.65-1.95v-9.99h0Z"/>
  <path class="cls-2" d="M100.58,33.57c.21-1.59.78-2.88,1.71-3.86.94-.99,2.12-1.48,3.56-1.48.77,0,1.45.14,2.06.42.6.28,1.12.66,1.56,1.13.44.47.78,1.04,1.04,1.69.26.65.42,1.35.5,2.1h-10.42ZM100.62,36.64h14.92c.03-.23.04-.45.06-.65.01-.21.02-.41.02-.62,0-1.46-.21-2.86-.62-4.19-.41-1.33-1.02-2.5-1.83-3.5-.81-1-1.82-1.79-3.04-2.38-1.22-.59-2.63-.88-4.25-.88-1.46,0-2.79.28-4,.85-1.2.56-2.25,1.33-3.13,2.29-.88.96-1.57,2.08-2.06,3.36-.49,1.28-.73,2.65-.73,4.11,0,1.59.27,3.03.81,4.33.54,1.29,1.28,2.4,2.21,3.33.94.92,2.04,1.64,3.31,2.15,1.27.51,2.63.77,4.1.77,1.87,0,3.48-.35,4.83-1.04,1.35-.69,2.51-1.62,3.48-2.77l-2.73-2.42c-.82.79-1.65,1.4-2.5,1.81-.85.41-1.85.62-3,.62-1.51,0-2.79-.44-3.85-1.33-1.05-.88-1.72-2.16-2-3.83h0Z"/>
  <path class="cls-2" d="M125,33.71c0-1.58.42-2.82,1.26-3.7.84-.88,1.94-1.33,3.28-1.33s2.44.43,3.19,1.29c.75.85,1.12,2.08,1.12,3.66v11.51h4.69v-12.92c0-2.38-.63-4.28-1.88-5.69-1.26-1.41-3.03-2.11-5.33-2.11-.79,0-1.5.1-2.13.29-.63.2-1.2.46-1.72.8-.53.33-.99.72-1.38,1.14-.4.43-.76.88-1.1,1.38v-3.19h-4.69v20.3h4.69v-11.43h0Z"/>
  <path class="cls-2" d="M149.8,28.8h5.46v-3.96h-5.46v-5.58h-4.69v5.58h-2.58v3.96h2.58v10.72c0,1.13.14,2.08.43,2.83.28.76.69,1.37,1.22,1.83.53.46,1.16.79,1.88,1,.72.21,1.51.31,2.35.31s1.64-.09,2.31-.27c.67-.18,1.29-.44,1.88-.77v-3.81c-.92.46-1.88.69-2.88.69-.79,0-1.41-.2-1.85-.6-.44-.4-.65-1.05-.65-1.95v-9.99h0Z"/>
  <polygon class="cls-2" points="164.87 45.14 164.87 24.84 160.18 24.84 160.18 45.14 164.87 45.14 164.87 45.14"/>
  <path class="cls-2" d="M183.45,37.8c0,.64-.14,1.22-.4,1.75-.27.53-.65.97-1.13,1.35-.49.37-1.06.66-1.71.87-.65.21-1.37.31-2.13.31-1.1,0-2.03-.26-2.79-.77-.75-.51-1.13-1.26-1.13-2.23v-.08c0-1.05.41-1.86,1.23-2.42.82-.56,1.96-.85,3.42-.85.9,0,1.75.08,2.56.23.81.15,1.51.35,2.1.58v1.27h0ZM187.94,45.14v-12.04c0-2.72-.73-4.83-2.19-6.33-1.46-1.5-3.71-2.25-6.73-2.25-1.67,0-3.09.15-4.27.46-1.18.31-2.33.72-3.46,1.23l1.27,3.73c.92-.38,1.83-.69,2.73-.92.9-.23,1.92-.35,3.08-.35,1.62,0,2.85.37,3.71,1.12.86.74,1.29,1.82,1.29,3.23v.5c-.79-.26-1.62-.46-2.48-.62-.86-.15-1.9-.23-3.13-.23s-2.27.13-3.29.4c-1.01.27-1.89.67-2.62,1.21-.73.54-1.3,1.22-1.71,2.04-.41.82-.61,1.78-.61,2.88v.08c0,1.03.2,1.93.6,2.71.4.78.92,1.44,1.58,1.96.65.53,1.42.92,2.29,1.19.87.27,1.8.4,2.77.4,1.54,0,2.84-.28,3.92-.85,1.08-.56,1.96-1.26,2.65-2.08v2.5h4.61Z"/>
  <polygon class="cls-2" points="198.44 45.14 198.44 17.07 193.75 17.07 193.75 45.14 198.44 45.14 198.44 45.14"/>
  <polygon class="cls-2" points="75.2 45.14 75.2 24.84 70.51 24.84 70.51 45.14 75.2 45.14 75.2 45.14"/>
  <g>
    <polygon class="cls-3" points="75.35 17.3 70.32 17.3 70.32 21.72 75.35 17.3 75.35 17.3"/>
    <path class="cls-3" d="M27.14,23.09c-4.91,0-9.68-.58-14.25-1.68,1.77,1.76,3.44,3.62,5.01,5.57,3.02.43,6.1.65,9.24.65s6.22-.22,9.24-.65c1.57-1.95,3.24-3.81,5.01-5.57-4.57,1.1-9.34,1.68-14.25,1.68h0ZM13.57,7.83L3.57,13.61c1.39.97,2.74,1.99,4.06,3.06L27.14,5.4l19.51,11.27c1.31-1.07,2.67-2.09,4.06-3.06l-10-5.77L27.14,0l-13.57,7.83h0Z"/>
    <path class="cls-2" d="M49.6,44.31l-13.35,7.7c-.71,2.09-1.31,4.24-1.78,6.43l6.23-3.6,13.57-7.83v-20.86c-1.64,1.33-3.2,2.76-4.68,4.26v13.9h0ZM49.6,25.13c-8.66,7.79-15.07,18.02-18.16,29.61,0,.02,0,.03-.01.05-.53,2.01-.97,4.06-1.29,6.15l-1.3.75-1.7.98-1.7-.98-1.3-.75c-.33-2.09-.76-4.14-1.29-6.15,0-.02,0-.03-.01-.05-3.08-11.59-9.5-21.83-18.16-29.61-1.49-1.34-3.06-2.62-4.68-3.81v-5.54c1.61,1.06,3.17,2.2,4.68,3.4,9.08,7.23,16.2,16.82,20.43,27.84.78,2.03,1.46,4.11,2.03,6.23.58-2.12,1.26-4.2,2.03-6.23,4.22-11.02,11.34-20.62,20.43-27.84,1.51-1.2,3.07-2.33,4.68-3.4v5.54c-1.62,1.19-3.18,2.46-4.68,3.81h0ZM4.68,30.41c-1.48-1.5-3.04-2.93-4.68-4.26v20.86l13.57,7.83,6.23,3.6c-.47-2.19-1.06-4.34-1.78-6.43l-13.35-7.7v-13.9h0Z"/>
  </g>
  <path class="cls-4" d="M205.57,21.03h.51c.28,0,.49-.07.65-.21.16-.14.24-.35.24-.61,0-.52-.3-.78-.89-.78h-.5v1.6h0ZM207.43,20.19c0,.24-.06.45-.17.63-.12.18-.28.33-.5.43l1.07,1.78h-.55l-.95-1.63h-.76v1.63h-.46v-3.99h.96c.43,0,.77.09,1.01.28.24.19.36.48.36.87h0ZM203.23,21.03c0,.54.13,1.04.4,1.49.27.46.63.82,1.09,1.09.46.27.96.4,1.5.4s1.04-.13,1.49-.4c.46-.27.82-.63,1.09-1.09.27-.46.4-.96.4-1.5s-.13-1.02-.39-1.47c-.26-.46-.62-.82-1.08-1.1-.46-.28-.97-.42-1.51-.42s-1.03.13-1.49.4c-.46.27-.83.63-1.09,1.1-.27.47-.4.96-.4,1.49h0ZM202.81,21.03c0-.6.15-1.17.45-1.7.3-.53.72-.95,1.25-1.25.53-.3,1.1-.46,1.71-.46s1.17.15,1.7.45c.53.3.95.72,1.25,1.25s.46,1.1.46,1.71-.15,1.15-.44,1.68c-.29.52-.7.94-1.23,1.25-.53.31-1.11.47-1.73.47s-1.2-.16-1.73-.47c-.53-.31-.94-.73-1.23-1.25-.3-.52-.44-1.08-.44-1.68h0Z"/>
</svg>